# Created with FME Version: FME(R) 2021.2.0.0 20211029 - Build 21784 - macosx
mtllib materials.mtl
# COORDINATE_SYSTEM:  
# Number of Geometry Coordinates  : 125
# Number of Texture  Coordinates  : 0
# Number of Normal   Coordinates  : 196
v 55.060421 102.849387 4.280000
v 52.851737 102.105470 4.410000
v 54.857254 102.998383 4.280000
v 55.288807 102.951072 4.280000
v 57.063339 101.654494 4.410000
v 54.829436 100.659896 4.410000
v 54.829436 100.659896 4.540000
v 52.851737 102.105470 4.540000
v 54.959543 101.846667 9.270000
v 57.063339 101.654494 4.540000
v 53.943709 102.591647 9.270000
v 55.085640 103.100068 13.990000
v 56.101475 102.355088 9.270000
v 53.113515 104.513916 4.540000
v 54.082517 103.816499 9.270000
v 55.224449 104.324920 9.270000
v 55.347419 105.508514 4.540000
v 53.113515 104.513916 4.410000
v 56.220436 103.605311 9.270000
v 57.319545 104.094666 4.540000
v 55.347419 105.508514 4.410000
v 55.123570 103.322199 4.280000
v 57.319545 104.094666 4.410000
v 54.895184 103.220515 4.280000
v 55.306890 103.198574 4.280000
v 297.666536 545.994327 4.289999
v 298.484028 553.781300 4.780000
v 305.427386 548.731325 4.780000
v 296.967104 545.682920 4.289999
v 298.283174 545.550517 4.289999
v 298.200378 544.795299 4.289999
v 304.534235 540.192312 4.780000
v 296.683454 536.696919 4.780000
v 297.500946 544.483892 4.289999
v 289.732960 541.743717 4.780000
v 296.884308 544.927702 4.289999
v 290.610820 542.134565 5.260000
v 290.633247 550.285907 4.780000
v 291.406219 549.740665 5.260000
v 298.372003 552.842032 5.260000
v 292.184764 549.163696 6.860000
v 298.279826 551.877392 6.860000
v 297.576604 545.235932 8.460000
v 291.488680 542.525414 6.860000
v 296.887656 538.600827 6.860000
v 303.678802 547.952806 6.860000
v 302.982718 541.314523 6.860000
v 303.761263 540.737554 5.260000
v 296.795479 537.636187 5.260000
v 304.556662 548.343654 5.260000
v 169.477355 524.359676 4.070000
v 171.156659 523.123322 4.310000
v 169.263243 524.264348 4.070000
v 169.051222 522.185922 4.310000
v 169.079924 524.387973 4.070000
v 167.195736 523.549078 4.560000
v 167.195736 523.549078 4.310000
v 169.051222 522.185922 4.560000
v 164.533608 522.363823 9.840000
v 167.424276 525.840103 4.560000
v 167.424276 525.840103 4.310000
v 169.529712 526.777504 4.560000
v 165.072802 527.529750 9.840000
v 169.847504 529.655585 9.840000
v 169.529712 526.777504 4.310000
v 171.392336 525.417525 4.560000
v 169.110717 524.606927 4.070000
v 171.392336 525.417525 4.310000
v 169.324828 524.702256 4.070000
v 169.501012 524.575453 4.070000
v 171.156659 523.123322 4.560000
v 173.520844 521.405127 9.840000
v 169.286898 524.480124 15.120001
v 174.061601 526.605959 9.840000
v 168.746142 519.279293 9.840000
v 209.496399 642.918048 4.110000
v 208.653689 634.880395 4.540000
v 208.892472 643.333310 4.110000
v 216.725720 638.474295 4.540000
v 210.188695 643.226278 4.110000
v 210.284202 643.952948 4.110000
v 209.667564 644.396758 4.110000
v 217.663936 647.238617 4.540000
v 210.510275 652.434411 4.540000
v 216.529141 646.733374 4.970000
v 215.729733 639.193904 4.970000
v 210.378604 651.212736 4.970000
v 209.987600 647.481082 5.630000
v 213.103346 645.208112 5.630000
v 212.694941 641.400295 5.630000
v 208.785360 636.102070 4.970000
v 209.169226 639.830546 5.630000
v 209.584768 643.641540 6.290000
v 206.059054 642.071791 5.630000
v 206.461886 645.911333 5.630000
v 202.640396 640.549706 4.970000
v 203.434231 648.120902 4.970000
v 202.438244 648.840511 4.540000
v 208.975268 644.088528 4.110000
v 201.512738 640.047640 4.540000
v 90.073238 174.298756 4.130000
v 88.528856 175.424144 4.210000
v 90.265938 174.384551 4.130000
v 90.470140 176.288459 4.210000
v 90.442121 174.257748 4.130000
v 92.183567 175.033090 4.210000
v 91.957271 172.948309 4.210000
v 90.418465 174.041972 4.130000
v 90.015987 172.083993 4.210000
v 90.225764 173.956176 4.130000
v 90.015987 172.083993 4.289999
v 88.315273 173.310815 4.210000
v 88.315273 173.310815 4.289999
v 90.056719 174.086156 4.130000
v 88.528856 175.424144 4.289999
v 90.470140 176.288459 4.289999
v 89.409768 174.790130 5.010000
v 90.344724 175.206399 5.010000
v 90.249419 174.171952 5.720000
v 91.191513 174.591399 5.010000
v 89.307325 173.752505 5.010000
v 90.134268 173.162877 5.010000
v 91.069224 173.579146 5.010000
v 91.957271 172.948309 4.289999
v 92.183567 175.033090 4.289999
vn -0.049981 -0.073375 -0.996051
vn 0.026967 -0.060568 -0.997800
vn 0.027577 -0.061938 -0.997699
vn -0.039481 -0.053919 -0.997765
vn -0.590601 -0.806964 0.000000
vn 0.406737 -0.913545 0.000000
vn -0.577688 -0.788517 0.210991
vn 0.397099 -0.891899 0.216401
vn -0.575039 -0.794595 0.194804
vn 0.396251 -0.889993 0.225604
vn 0.398012 -0.893950 0.206010
vn -0.577610 -0.784550 0.225494
vn -0.971948 0.109214 0.208299
vn -0.969617 0.107184 0.219898
vn -0.971625 0.108259 0.210298
vn -0.396251 0.889993 0.225604
vn -0.397152 0.892019 0.215808
vn -0.398418 0.894862 0.201210
vn -0.406737 0.913545 0.000000
vn 0.576335 0.786735 0.221101
vn 0.565016 0.797328 0.212192
vn 0.576773 0.816904 0.000000
vn 0.039592 0.055392 -0.997679
vn -0.026967 0.060568 -0.997800
vn -0.028716 0.064497 -0.997505
vn 0.585455 0.810705 0.000000
vn -0.078193 0.016306 -0.996805
vn -0.068431 0.007408 -0.997628
vn 0.033387 0.044750 -0.998440
vn 0.083827 -0.002412 -0.996477
vn 0.067585 -0.007236 -0.997687
vn 0.994880 -0.101062 0.000000
vn 0.993761 -0.111533 0.000000
vn -0.994217 0.107390 0.000000
vn 0.970533 -0.102701 0.217988
vn 0.973984 -0.095294 0.205605
vn 0.575604 0.787185 0.221405
vn 0.972331 -0.087026 0.216793
vn 0.042404 0.058177 -0.997405
vn -0.029568 0.066412 -0.997354
vn 0.043348 0.060241 -0.997242
vn 0.073773 -0.008095 -0.997242
vn 0.071254 -0.007355 -0.997431
vn 0.029447 -0.066139 -0.997376
vn 0.029568 -0.066412 -0.997354
vn -0.048165 -0.066872 -0.996598
vn -0.042030 -0.057793 -0.997443
vn -0.073773 0.008095 -0.997242
vn -0.296653 -0.407171 0.863834
vn -0.504397 0.052365 0.861882
vn -0.071294 0.007447 -0.997428
vn -0.029447 0.066139 -0.997376
vn -0.211670 0.475418 0.853916
vn -0.212075 0.476328 0.853309
vn -0.489473 0.052322 0.870447
vn -0.877370 0.090561 0.471190
vn -0.359272 0.806938 0.468802
vn -0.361881 0.812798 0.456510
vn -0.267522 0.028235 0.963138
vn -0.884194 0.093155 0.457737
vn -0.107505 0.241459 0.964438
vn -0.158024 -0.217701 0.963138
vn 0.157390 0.215661 0.963701
vn 0.267200 -0.027505 0.963249
vn 0.107505 -0.241459 0.964438
vn 0.368407 -0.827456 0.423783
vn 0.356417 -0.800527 0.481792
vn -0.520310 -0.713403 0.469397
vn -0.521146 -0.717731 0.461811
vn 0.211670 -0.475418 0.853916
vn 0.203783 -0.457705 0.865435
vn -0.288638 -0.398759 0.870447
vn 0.877370 -0.090561 0.471190
vn 0.503500 -0.052013 0.862428
vn 0.498108 -0.052443 0.865528
vn 0.289145 0.397898 0.870673
vn 0.298593 0.409879 0.861882
vn 0.520310 0.713403 0.469397
vn 0.521971 0.722673 0.453089
vn 0.884236 -0.095391 0.457195
vn 0.062801 -0.141053 -0.988008
vn 0.053407 -0.119954 -0.991342
vn -0.083441 -0.104907 -0.990975
vn -0.592082 -0.805878 0.000000
vn -0.078606 -0.106912 -0.991156
vn -0.539288 -0.724788 -0.428779
vn -0.892221 0.083528 -0.443806
vn -0.995064 0.099235 0.000000
vn -0.900314 0.093742 -0.425027
vn -0.368021 0.826589 -0.425807
vn -0.366038 0.822134 -0.436018
vn 0.530828 0.733660 -0.424223
vn 0.592082 0.805878 0.000000
vn -0.054217 0.121773 -0.991076
vn 0.587303 0.809367 0.000000
vn 0.077464 0.105314 -0.991417
vn -0.053972 0.121222 -0.991157
vn 0.074882 0.123647 -0.989497
vn 0.141993 -0.027088 -0.989497
vn -0.115007 0.007032 -0.993340
vn 0.130097 -0.012901 -0.991417
vn 0.994459 -0.105121 0.000000
vn 0.995064 -0.099235 0.000000
vn 0.895984 -0.095962 -0.433595
vn 0.364550 -0.818792 -0.443490
vn 0.754140 -0.079223 0.651918
vn 0.896697 -0.092455 -0.432882
vn 0.309517 -0.695186 0.648780
vn 0.367383 -0.825157 -0.429122
vn -0.447708 -0.611112 0.652763
vn -0.530691 -0.724475 -0.439889
vn 0.444901 0.616218 0.649876
vn -0.758629 0.078977 0.646719
vn -0.309517 0.695186 0.648780
vn 0.528610 0.729124 -0.434684
vn -0.132049 0.013123 -0.991156
vn -0.034600 -0.047914 -0.998252
vn 0.025014 -0.056183 -0.998107
vn 0.024771 -0.055637 -0.998144
vn 0.059980 -0.009088 -0.998158
vn 0.042291 0.058673 -0.997381
vn 0.060906 -0.006489 -0.998122
vn 0.035790 0.049432 -0.998136
vn 0.215676 0.297655 0.929992
vn 0.360405 -0.038976 0.931981
vn 0.380048 -0.039544 0.924121
vn 0.118278 0.162120 0.979657
vn 0.229381 0.313617 0.921427
vn 0.115212 0.158463 0.980620
vn 0.199140 -0.021680 0.979731
vn 0.196939 -0.020686 0.980197
vn 0.154034 -0.345966 0.925517
vn 0.080534 -0.180882 0.980202
vn 0.081183 -0.182340 0.979878
vn -0.113795 -0.157936 0.980871
vn -0.115951 -0.160982 0.980123
vn 0.079439 -0.178423 0.980742
vn -0.079439 0.178423 0.980742
vn -0.191290 0.020030 0.981329
vn 0.112862 0.156098 0.981272
vn 0.193764 -0.021663 0.980809
vn -0.194600 0.019864 0.980681
vn -0.083058 0.186551 0.978928
vn -0.198822 0.020725 0.979817
vn -0.379367 0.040273 0.924369
vn -0.080776 0.181427 0.980081
vn -0.149022 0.334710 0.930463
vn -0.150939 0.339014 0.928594
vn -0.024933 0.056001 -0.998119
vn -0.060562 0.006205 -0.998145
vn -0.369414 0.038573 0.928464
vn -0.072595 0.009385 -0.997317
vn -0.219907 -0.303362 0.927153
vn -0.035750 -0.049523 -0.998133
vn -0.023632 0.053078 -0.998311
vn -0.221122 -0.306319 0.925891
vn -0.117552 -0.161801 0.979797
vn 0.156261 -0.350968 0.923257
vn -0.019035 0.042754 -0.998904
vn -0.020460 0.045953 -0.998734
vn 0.024989 0.028202 -0.999290
vn 0.029622 0.040665 -0.998734
vn 0.048507 -0.005441 -0.998808
vn 0.037679 -0.000300 -0.999290
vn 0.022859 -0.051342 -0.998419
vn 0.019727 -0.044308 -0.998823
vn -0.027979 -0.038949 -0.998849
vn -0.586650 -0.809840 0.000000
vn -0.582615 -0.812748 0.000000
vn -0.028081 -0.035271 -0.998983
vn -0.045001 0.002732 -0.998983
vn -0.995130 0.098569 0.000000
vn -0.049236 0.005115 -0.998774
vn -0.994628 0.103517 0.000000
vn -0.635734 0.066488 0.769040
vn -0.249692 0.560818 0.789390
vn -0.254081 0.570676 0.780879
vn -0.250834 0.563383 0.787199
vn 0.355540 0.474968 0.804982
vn 0.368136 0.485851 0.792733
vn -0.372337 -0.513412 0.773158
vn 0.261481 -0.587296 0.765971
vn -0.590873 0.053598 0.804982
vn 0.617407 -0.065442 0.783917
vn 0.247258 -0.555350 0.794009
vn 0.596383 -0.059575 0.800487
vn 0.254081 -0.570676 0.780879
vn 0.605558 -0.067865 0.792902
vn 0.993835 -0.110867 0.000000
vn 0.994374 -0.105923 0.000000
vn 0.364898 0.501697 0.784314
vn 0.592621 0.805481 0.000000
vn 0.588608 0.808419 0.000000
vn -0.571980 0.048456 0.818835
vn -0.347586 -0.473183 0.809495
vn -0.365529 -0.510633 0.778230
usemtl VomitGreen
# Number of Elements in set       : 210
f 1//1 2//1 3//1 
f 4//2 5//2 1//2 
f 5//3 6//3 1//3 
f 1//4 6//4 2//4 
f 6//5 7//5 8//5 
f 6//5 8//5 2//5 
f 5//6 7//6 6//6 
f 7//7 9//7 8//7 
f 10//8 9//8 7//8 
f 5//6 10//6 7//6 
f 9//9 11//9 8//9 
f 12//10 9//10 13//10 
f 10//11 13//11 9//11 
f 12//12 11//12 9//12 
f 8//13 11//13 14//13 
f 11//14 15//14 14//14 
f 12//15 15//15 11//15 
f 12//16 16//16 15//16 
f 15//17 16//17 17//17 
f 14//18 15//18 17//18 
f 18//19 14//19 17//19 
f 17//20 16//20 19//20 
f 17//21 19//21 20//21 
f 21//22 17//22 20//22 
f 18//19 17//19 21//19 
f 22//23 21//23 23//23 
f 24//24 21//24 22//24 
f 24//25 18//25 21//25 
f 21//26 20//26 23//26 
f 3//27 2//27 24//27 
f 2//28 18//28 24//28 
f 22//29 23//29 25//29 
f 25//30 23//30 4//30 
f 23//31 5//31 4//31 
f 23//32 20//32 10//32 
f 23//33 10//33 5//33 
f 2//34 14//34 18//34 
f 20//35 13//35 10//35 
f 20//36 19//36 13//36 
f 12//37 19//37 16//37 
f 12//38 13//38 19//38 
f 2//34 8//34 14//34 
f 26//39 27//39 28//39 
f 29//40 27//40 26//40 
f 26//41 28//41 30//41 
f 30//42 28//42 31//42 
f 28//43 32//43 31//43 
f 31//44 32//44 33//44 
f 31//45 33//45 34//45 
f 34//46 35//46 36//46 
f 34//47 33//47 35//47 
f 36//48 35//48 29//48 
f 33//49 37//49 35//49 
f 35//50 37//50 38//50 
f 35//51 38//51 29//51 
f 29//52 38//52 27//52 
f 38//53 39//53 40//53 
f 38//54 40//54 27//54 
f 37//55 39//55 38//55 
f 37//56 41//56 39//56 
f 39//57 42//57 40//57 
f 39//58 41//58 42//58 
f 43//59 41//59 44//59 
f 37//60 44//60 41//60 
f 43//61 42//61 41//61 
f 43//62 44//62 45//62 
f 43//63 46//63 42//63 
f 43//64 47//64 46//64 
f 43//65 45//65 47//65 
f 48//66 47//66 45//66 
f 48//67 45//67 49//67 
f 49//68 45//68 37//68 
f 45//69 44//69 37//69 
f 32//70 48//70 49//70 
f 32//71 49//71 33//71 
f 33//72 49//72 37//72 
f 50//73 47//73 48//73 
f 28//74 50//74 48//74 
f 28//75 48//75 32//75 
f 27//76 40//76 50//76 
f 27//77 50//77 28//77 
f 40//78 42//78 50//78 
f 42//79 46//79 50//79 
f 50//80 46//80 47//80 
f 51//81 52//81 53//81 
f 52//82 54//82 53//82 
f 53//83 54//83 55//83 
f 54//84 56//84 57//84 
f 54//85 57//85 55//85 
f 52//6 58//6 54//6 
f 54//84 58//84 56//84 
f 58//86 59//86 56//86 
f 56//87 59//87 60//87 
f 57//88 56//88 60//88 
f 61//19 60//19 62//19 
f 57//88 60//88 61//88 
f 59//89 63//89 60//89 
f 60//90 63//90 64//90 
f 60//91 64//91 62//91 
f 61//19 62//19 65//19 
f 62//92 64//92 66//92 
f 65//93 62//93 66//93 
f 67//94 61//94 65//94 
f 65//95 66//95 68//95 
f 69//96 65//96 68//96 
f 67//97 65//97 69//97 
f 69//98 68//98 70//98 
f 70//99 68//99 51//99 
f 55//100 61//100 67//100 
f 68//101 52//101 51//101 
f 68//102 66//102 71//102 
f 68//103 71//103 52//103 
f 66//104 72//104 71//104 
f 71//105 72//105 58//105 
f 52//6 71//6 58//6 
f 73//106 72//106 74//106 
f 66//107 74//107 72//107 
f 73//108 75//108 72//108 
f 72//109 75//109 58//109 
f 73//110 59//110 75//110 
f 58//111 75//111 59//111 
f 73//112 74//112 64//112 
f 73//113 63//113 59//113 
f 73//114 64//114 63//114 
f 64//115 74//115 66//115 
f 55//116 57//116 61//116 
f 76//117 77//117 78//117 
f 79//118 77//118 76//118 
f 80//119 79//119 76//119 
f 81//120 79//120 80//120 
f 82//121 83//121 81//121 
f 81//122 83//122 79//122 
f 82//123 84//123 83//123 
f 84//124 85//124 83//124 
f 83//125 85//125 79//125 
f 85//126 86//126 79//126 
f 87//127 88//127 85//127 
f 84//128 87//128 85//128 
f 88//129 89//129 85//129 
f 85//130 89//130 90//130 
f 85//131 90//131 86//131 
f 79//132 86//132 91//132 
f 86//133 92//133 91//133 
f 86//134 90//134 92//134 
f 93//135 94//135 92//135 
f 91//136 92//136 94//136 
f 93//137 92//137 90//137 
f 93//138 88//138 95//138 
f 93//139 95//139 94//139 
f 93//140 89//140 88//140 
f 93//141 90//141 89//141 
f 96//142 94//142 95//142 
f 97//143 95//143 88//143 
f 96//144 95//144 97//144 
f 96//145 97//145 98//145 
f 97//146 88//146 87//146 
f 97//147 87//147 84//147 
f 98//148 97//148 84//148 
f 99//149 98//149 84//149 
f 100//150 98//150 99//150 
f 100//151 96//151 98//151 
f 78//152 100//152 99//152 
f 77//153 96//153 100//153 
f 77//154 100//154 78//154 
f 99//155 84//155 82//155 
f 77//156 91//156 96//156 
f 91//157 94//157 96//157 
f 79//158 91//158 77//158 
f 101//159 102//159 103//159 
f 102//160 104//160 103//160 
f 103//161 104//161 105//161 
f 104//162 106//162 105//162 
f 105//163 106//163 107//163 
f 105//164 107//164 108//164 
f 108//165 109//165 110//165 
f 108//166 107//166 109//166 
f 107//6 111//6 109//6 
f 110//167 109//167 112//167 
f 109//168 111//168 113//168 
f 109//169 113//169 112//169 
f 110//170 112//170 114//170 
f 114//171 112//171 101//171 
f 112//172 115//172 102//172 
f 112//173 102//173 101//173 
f 112//174 113//174 115//174 
f 102//19 115//19 116//19 
f 113//175 117//175 115//175 
f 115//176 118//176 116//176 
f 115//177 117//177 118//177 
f 119//178 118//178 117//178 
f 119//179 120//179 118//179 
f 116//180 118//180 120//180 
f 119//181 121//181 122//181 
f 119//182 122//182 123//182 
f 119//183 117//183 121//183 
f 119//184 123//184 120//184 
f 124//185 123//185 111//185 
f 120//186 123//186 124//186 
f 123//187 122//187 111//187 
f 125//188 120//188 124//188 
f 106//189 125//189 124//189 
f 107//6 124//6 111//6 
f 106//190 124//190 107//190 
f 116//191 120//191 125//191 
f 104//192 116//192 125//192 
f 104//193 125//193 106//193 
f 113//194 121//194 117//194 
f 122//195 121//195 113//195 
f 111//196 122//196 113//196 
f 102//19 116//19 104//19 
# Total Number of Elements in file: 210
# EOF
