# Blender v3.0.0 OBJ File: 'WH1.blend'
# www.blender.org
o trunk.009_broad_lod3
v 80.000000 18.000000 0.000000
v 79.476334 18.000000 0.000000
v 79.738167 18.332602 0.000000
v 80.261833 18.332602 0.000000
v 80.523666 18.000000 0.000000
v 80.261833 17.664106 0.000000
v 79.738167 17.664106 0.000000
v 79.738167 18.332602 4.166514
v 79.476334 18.000000 4.166514
v 80.261833 18.332602 4.166514
v 80.523666 18.000000 4.166514
v 80.261833 17.664106 4.166514
v 79.738167 17.664106 4.166514
v 80.000000 18.000000 4.166514
vn 0.0000 0.0000 -1.0000
vn -0.7857 0.6186 0.0000
vn 0.0000 1.0000 0.0000
vn 0.7857 0.6186 0.0000
vn 0.7858 0.6185 0.0000
vn 0.7887 -0.6148 0.0000
vn 0.0000 -1.0000 0.0000
vn -0.7887 -0.6148 0.0000
vn 0.0000 0.0000 1.0000
s off
f 1//1 2//1 3//1
f 1//1 3//1 4//1
f 1//1 4//1 5//1
f 1//1 5//1 6//1
f 1//1 6//1 7//1
f 1//1 7//1 2//1
f 2//2 8//2 3//2
f 2//2 9//2 8//2
f 3//3 10//3 4//3
f 3//3 8//3 10//3
f 4//4 11//4 5//4
f 4//5 10//5 11//5
f 5//6 12//6 6//6
f 5//6 11//6 12//6
f 6//7 13//7 7//7
f 6//7 12//7 13//7
f 7//8 9//8 2//8
f 7//8 13//8 9//8
f 14//9 8//9 9//9
f 14//9 10//9 8//9
f 14//9 11//9 10//9
f 14//9 12//9 11//9
f 14//9 13//9 12//9
f 14//9 9//9 13//9
o trunk.010_broad_lod3.003
v 60.000000 18.000000 0.000000
v 59.476330 18.000000 0.000000
v 59.738167 18.332602 0.000000
v 60.261833 18.332602 0.000000
v 60.523670 18.000000 0.000000
v 60.261833 17.664106 0.000000
v 59.738167 17.664106 0.000000
v 59.738167 18.332602 4.166514
v 59.476330 18.000000 4.166514
v 60.261833 18.332602 4.166514
v 60.523670 18.000000 4.166514
v 60.261833 17.664106 4.166514
v 59.738167 17.664106 4.166514
v 60.000000 18.000000 4.166514
vn 0.0000 0.0000 -1.0000
vn -0.7857 0.6186 0.0000
vn -0.7857 0.6185 0.0000
vn 0.0000 1.0000 0.0000
vn 0.7857 0.6186 0.0000
vn 0.7887 -0.6148 0.0000
vn 0.0000 -1.0000 0.0000
vn -0.7887 -0.6148 0.0000
vn 0.0000 0.0000 1.0000
s off
f 15//10 16//10 17//10
f 15//10 17//10 18//10
f 15//10 18//10 19//10
f 15//10 19//10 20//10
f 15//10 20//10 21//10
f 15//10 21//10 16//10
f 16//11 22//11 17//11
f 16//12 23//12 22//12
f 17//13 24//13 18//13
f 17//13 22//13 24//13
f 18//14 25//14 19//14
f 18//14 24//14 25//14
f 19//15 26//15 20//15
f 19//15 25//15 26//15
f 20//16 27//16 21//16
f 20//16 26//16 27//16
f 21//17 23//17 16//17
f 21//17 27//17 23//17
f 28//18 22//18 23//18
f 28//18 24//18 22//18
f 28//18 25//18 24//18
f 28//18 26//18 25//18
f 28//18 27//18 26//18
f 28//18 23//18 27//18
o trunk.011_broad_lod3.005
v 40.000000 18.000000 0.000000
v 39.476330 18.000000 0.000000
v 39.738167 18.332602 0.000000
v 40.261833 18.332602 0.000000
v 40.523670 18.000000 0.000000
v 40.261833 17.664106 0.000000
v 39.738167 17.664106 0.000000
v 39.738167 18.332602 4.166514
v 39.476330 18.000000 4.166514
v 40.261833 18.332602 4.166514
v 40.523670 18.000000 4.166514
v 40.261833 17.664106 4.166514
v 39.738167 17.664106 4.166514
v 40.000000 18.000000 4.166514
vn 0.0000 0.0000 -1.0000
vn -0.7857 0.6186 0.0000
vn -0.7857 0.6185 0.0000
vn 0.0000 1.0000 0.0000
vn 0.7857 0.6186 0.0000
vn 0.7887 -0.6148 0.0000
vn 0.0000 -1.0000 0.0000
vn -0.7887 -0.6148 0.0000
vn 0.0000 0.0000 1.0000
s off
f 29//19 30//19 31//19
f 29//19 31//19 32//19
f 29//19 32//19 33//19
f 29//19 33//19 34//19
f 29//19 34//19 35//19
f 29//19 35//19 30//19
f 30//20 36//20 31//20
f 30//21 37//21 36//21
f 31//22 38//22 32//22
f 31//22 36//22 38//22
f 32//23 39//23 33//23
f 32//23 38//23 39//23
f 33//24 40//24 34//24
f 33//24 39//24 40//24
f 34//25 41//25 35//25
f 34//25 40//25 41//25
f 35//26 37//26 30//26
f 35//26 41//26 37//26
f 42//27 36//27 37//27
f 42//27 38//27 36//27
f 42//27 39//27 38//27
f 42//27 40//27 39//27
f 42//27 41//27 40//27
f 42//27 37//27 41//27
o trunk.012_broad_lod3.007
v 20.000000 18.000000 0.000000
v 19.476332 18.000000 0.000000
v 19.738165 18.332602 0.000000
v 20.261835 18.332602 0.000000
v 20.523668 18.000000 0.000000
v 20.261835 17.664106 0.000000
v 19.738165 17.664106 0.000000
v 19.738165 18.332602 4.166514
v 19.476332 18.000000 4.166514
v 20.261835 18.332602 4.166514
v 20.523668 18.000000 4.166514
v 20.261835 17.664106 4.166514
v 19.738165 17.664106 4.166514
v 20.000000 18.000000 4.166514
vn 0.0000 0.0000 -1.0000
vn -0.7857 0.6186 0.0000
vn 0.0000 1.0000 0.0000
vn 0.7857 0.6186 0.0000
vn 0.7887 -0.6148 0.0000
vn 0.0000 -1.0000 0.0000
vn -0.7887 -0.6148 0.0000
vn 0.0000 0.0000 1.0000
s off
f 43//28 44//28 45//28
f 43//28 45//28 46//28
f 43//28 46//28 47//28
f 43//28 47//28 48//28
f 43//28 48//28 49//28
f 43//28 49//28 44//28
f 44//29 50//29 45//29
f 44//29 51//29 50//29
f 45//30 52//30 46//30
f 45//30 50//30 52//30
f 46//31 53//31 47//31
f 46//31 52//31 53//31
f 47//32 54//32 48//32
f 47//32 53//32 54//32
f 48//33 55//33 49//33
f 48//33 54//33 55//33
f 49//34 51//34 44//34
f 49//34 55//34 51//34
f 56//35 50//35 51//35
f 56//35 52//35 50//35
f 56//35 53//35 52//35
f 56//35 54//35 53//35
f 56//35 55//35 54//35
f 56//35 51//35 55//35
o trunk.013_broad_lod3.009
v 0.000000 18.000000 0.000000
v -0.523669 18.000000 0.000000
v -0.261834 18.332602 0.000000
v 0.261834 18.332602 0.000000
v 0.523669 18.000000 0.000000
v 0.261834 17.664106 0.000000
v -0.261834 17.664106 0.000000
v -0.261834 18.332602 4.166514
v -0.523669 18.000000 4.166514
v 0.261834 18.332602 4.166514
v 0.523669 18.000000 4.166514
v 0.261834 17.664106 4.166514
v -0.261834 17.664106 4.166514
v 0.000000 18.000000 4.166514
vn 0.0000 0.0000 -1.0000
vn -0.7857 0.6186 0.0000
vn 0.0000 1.0000 0.0000
vn 0.7857 0.6186 0.0000
vn 0.7887 -0.6148 0.0000
vn 0.0000 -1.0000 0.0000
vn -0.7887 -0.6148 0.0000
vn 0.0000 0.0000 1.0000
s off
f 57//36 58//36 59//36
f 57//36 59//36 60//36
f 57//36 60//36 61//36
f 57//36 61//36 62//36
f 57//36 62//36 63//36
f 57//36 63//36 58//36
f 58//37 64//37 59//37
f 58//37 65//37 64//37
f 59//38 66//38 60//38
f 59//38 64//38 66//38
f 60//39 67//39 61//39
f 60//39 66//39 67//39
f 61//40 68//40 62//40
f 61//40 67//40 68//40
f 62//41 69//41 63//41
f 62//41 68//41 69//41
f 63//42 65//42 58//42
f 63//42 69//42 65//42
f 70//43 64//43 65//43
f 70//43 66//43 64//43
f 70//43 67//43 66//43
f 70//43 68//43 67//43
f 70//43 69//43 68//43
f 70//43 65//43 69//43
o trunk.014_broad_lod3.011
v -20.000000 18.000000 0.000000
v -20.523668 18.000000 0.000000
v -20.261835 18.332602 0.000000
v -19.738165 18.332602 0.000000
v -19.476332 18.000000 0.000000
v -19.738165 17.664106 0.000000
v -20.261835 17.664106 0.000000
v -20.261835 18.332602 4.166514
v -20.523668 18.000000 4.166514
v -19.738165 18.332602 4.166514
v -19.476332 18.000000 4.166514
v -19.738165 17.664106 4.166514
v -20.261835 17.664106 4.166514
v -20.000000 18.000000 4.166514
vn 0.0000 0.0000 -1.0000
vn -0.7857 0.6186 0.0000
vn 0.0000 1.0000 0.0000
vn 0.7857 0.6186 0.0000
vn 0.7887 -0.6148 0.0000
vn 0.0000 -1.0000 0.0000
vn -0.7887 -0.6148 0.0000
vn 0.0000 0.0000 1.0000
s off
f 71//44 72//44 73//44
f 71//44 73//44 74//44
f 71//44 74//44 75//44
f 71//44 75//44 76//44
f 71//44 76//44 77//44
f 71//44 77//44 72//44
f 72//45 78//45 73//45
f 72//45 79//45 78//45
f 73//46 80//46 74//46
f 73//46 78//46 80//46
f 74//47 81//47 75//47
f 74//47 80//47 81//47
f 75//48 82//48 76//48
f 75//48 81//48 82//48
f 76//49 83//49 77//49
f 76//49 82//49 83//49
f 77//50 79//50 72//50
f 77//50 83//50 79//50
f 84//51 78//51 79//51
f 84//51 80//51 78//51
f 84//51 81//51 80//51
f 84//51 82//51 81//51
f 84//51 83//51 82//51
f 84//51 79//51 83//51
o trunk.015_broad_lod3.013
v -40.000000 18.000000 0.000000
v -40.523670 18.000000 0.000000
v -40.261833 18.332602 0.000000
v -39.738167 18.332602 0.000000
v -39.476330 18.000000 0.000000
v -39.738167 17.664106 0.000000
v -40.261833 17.664106 0.000000
v -40.261833 18.332602 4.166514
v -40.523670 18.000000 4.166514
v -39.738167 18.332602 4.166514
v -39.476330 18.000000 4.166514
v -39.738167 17.664106 4.166514
v -40.261833 17.664106 4.166514
v -40.000000 18.000000 4.166514
vn 0.0000 0.0000 -1.0000
vn -0.7857 0.6186 0.0000
vn 0.0000 1.0000 0.0000
vn 0.7857 0.6185 0.0000
vn 0.7857 0.6186 0.0000
vn 0.7887 -0.6148 0.0000
vn 0.0000 -1.0000 0.0000
vn -0.7887 -0.6148 0.0000
vn 0.0000 0.0000 1.0000
s off
f 85//52 86//52 87//52
f 85//52 87//52 88//52
f 85//52 88//52 89//52
f 85//52 89//52 90//52
f 85//52 90//52 91//52
f 85//52 91//52 86//52
f 86//53 92//53 87//53
f 86//53 93//53 92//53
f 87//54 94//54 88//54
f 87//54 92//54 94//54
f 88//55 95//55 89//55
f 88//56 94//56 95//56
f 89//57 96//57 90//57
f 89//57 95//57 96//57
f 90//58 97//58 91//58
f 90//58 96//58 97//58
f 91//59 93//59 86//59
f 91//59 97//59 93//59
f 98//60 92//60 93//60
f 98//60 94//60 92//60
f 98//60 95//60 94//60
f 98//60 96//60 95//60
f 98//60 97//60 96//60
f 98//60 93//60 97//60
o trunk.016_broad_lod3.015
v -60.000000 18.000000 0.000000
v -60.523670 18.000000 0.000000
v -60.261833 18.332602 0.000000
v -59.738167 18.332602 0.000000
v -59.476330 18.000000 0.000000
v -59.738167 17.664106 0.000000
v -60.261833 17.664106 0.000000
v -60.261833 18.332602 4.166514
v -60.523670 18.000000 4.166514
v -59.738167 18.332602 4.166514
v -59.476330 18.000000 4.166514
v -59.738167 17.664106 4.166514
v -60.261833 17.664106 4.166514
v -60.000000 18.000000 4.166514
vn 0.0000 0.0000 -1.0000
vn -0.7857 0.6186 0.0000
vn 0.0000 1.0000 0.0000
vn 0.7857 0.6185 0.0000
vn 0.7857 0.6186 0.0000
vn 0.7887 -0.6148 0.0000
vn 0.0000 -1.0000 0.0000
vn -0.7887 -0.6148 0.0000
vn 0.0000 0.0000 1.0000
s off
f 99//61 100//61 101//61
f 99//61 101//61 102//61
f 99//61 102//61 103//61
f 99//61 103//61 104//61
f 99//61 104//61 105//61
f 99//61 105//61 100//61
f 100//62 106//62 101//62
f 100//62 107//62 106//62
f 101//63 108//63 102//63
f 101//63 106//63 108//63
f 102//64 109//64 103//64
f 102//65 108//65 109//65
f 103//66 110//66 104//66
f 103//66 109//66 110//66
f 104//67 111//67 105//67
f 104//67 110//67 111//67
f 105//68 107//68 100//68
f 105//68 111//68 107//68
f 112//69 106//69 107//69
f 112//69 108//69 106//69
f 112//69 109//69 108//69
f 112//69 110//69 109//69
f 112//69 111//69 110//69
f 112//69 107//69 111//69
o trunk.017_broad_lod3.017
v -80.000000 18.000000 0.000000
v -80.523666 18.000000 0.000000
v -80.261833 18.332602 0.000000
v -79.738167 18.332602 0.000000
v -79.476334 18.000000 0.000000
v -79.738167 17.664106 0.000000
v -80.261833 17.664106 0.000000
v -80.261833 18.332602 4.166514
v -80.523666 18.000000 4.166514
v -79.738167 18.332602 4.166514
v -79.476334 18.000000 4.166514
v -79.738167 17.664106 4.166514
v -80.261833 17.664106 4.166514
v -80.000000 18.000000 4.166514
vn 0.0000 0.0000 -1.0000
vn -0.7858 0.6185 0.0000
vn -0.7857 0.6186 0.0000
vn 0.0000 1.0000 0.0000
vn 0.7857 0.6186 0.0000
vn 0.7887 -0.6148 0.0000
vn 0.0000 -1.0000 0.0000
vn -0.7887 -0.6148 0.0000
vn 0.0000 0.0000 1.0000
s off
f 113//70 114//70 115//70
f 113//70 115//70 116//70
f 113//70 116//70 117//70
f 113//70 117//70 118//70
f 113//70 118//70 119//70
f 113//70 119//70 114//70
f 114//71 120//71 115//71
f 114//72 121//72 120//72
f 115//73 122//73 116//73
f 115//73 120//73 122//73
f 116//74 123//74 117//74
f 116//74 122//74 123//74
f 117//75 124//75 118//75
f 117//75 123//75 124//75
f 118//76 125//76 119//76
f 118//76 124//76 125//76
f 119//77 121//77 114//77
f 119//77 125//77 121//77
f 126//78 120//78 121//78
f 126//78 122//78 120//78
f 126//78 123//78 122//78
f 126//78 124//78 123//78
f 126//78 125//78 124//78
f 126//78 121//78 125//78
