# Blender v3.0.0 OBJ File: 'WH1.blend'
# www.blender.org
o canopy.018_conifer_lod2.001
v 79.550003 18.000000 2.329522
v 77.750000 22.497293 2.525988
v 79.775002 18.449190 2.329522
v 75.500000 18.000000 2.525988
v 82.250000 22.497293 2.525988
v 80.224998 18.449190 2.329522
v 84.500000 18.000000 2.525988
v 80.449997 18.000000 2.329522
v 82.250000 13.497293 2.525988
v 80.224998 17.545401 2.329522
v 77.750000 13.497293 2.525988
v 79.775002 17.545401 2.329522
v 77.750000 22.497293 2.713098
v 75.500000 18.000000 2.713098
v 82.250000 22.497293 2.713098
v 84.500000 18.000000 2.713098
v 82.250000 13.497293 2.713098
v 77.750000 13.497293 2.713098
v 78.710938 20.570656 10.356548
v 77.421875 18.000000 10.356548
v 81.289062 20.570656 10.356548
v 82.573441 18.000000 10.356548
v 81.289062 15.423933 10.356548
v 78.710938 15.423933 10.356548
v 80.000000 18.000000 18.000000
vn -0.0484 0.0242 -0.9985
vn 0.0000 0.0485 -0.9988
vn 0.0484 0.0242 -0.9985
vn 0.0485 -0.0242 -0.9985
vn 0.0484 -0.0240 -0.9985
vn 0.0000 -0.0485 -0.9988
vn -0.0484 -0.0240 -0.9985
vn -0.0485 -0.0242 -0.9985
vn -0.8943 0.4474 0.0000
vn 0.0000 1.0000 0.0000
vn 0.8943 0.4474 0.0000
vn 0.8945 -0.4470 0.0000
vn 0.0000 -1.0000 0.0000
vn -0.8945 -0.4470 0.0000
vn -0.8725 0.4365 0.2197
vn -0.8721 0.4373 0.2193
vn 0.0000 0.9697 0.2444
vn 0.8727 0.4360 0.2200
vn 0.8725 0.4365 0.2197
vn 0.8727 -0.4361 0.2196
vn 0.8730 -0.4353 0.2200
vn 0.0000 -0.9697 0.2444
vn -0.8725 -0.4366 0.2194
vn -0.8727 -0.4361 0.2196
vn -0.8559 0.4292 0.2887
vn 0.0000 0.9478 0.3188
vn 0.8566 0.4280 0.2884
vn 0.8569 -0.4272 0.2885
vn 0.0000 -0.9476 0.3194
vn -0.8562 -0.4284 0.2888
s off
f 1//1 2//1 3//1
f 1//1 4//1 2//1
f 3//2 5//2 6//2
f 3//2 2//2 5//2
f 5//3 7//3 8//3
f 6//3 5//3 8//3
f 7//4 9//4 10//4
f 8//5 7//5 10//5
f 10//6 11//6 12//6
f 10//6 9//6 11//6
f 12//7 4//7 1//7
f 12//8 11//8 4//8
f 4//9 13//9 2//9
f 4//9 14//9 13//9
f 2//10 15//10 5//10
f 2//10 13//10 15//10
f 5//11 16//11 7//11
f 5//11 15//11 16//11
f 7//12 17//12 9//12
f 7//12 16//12 17//12
f 9//13 18//13 11//13
f 9//13 17//13 18//13
f 11//14 14//14 4//14
f 11//14 18//14 14//14
f 14//15 19//15 13//15
f 14//16 20//16 19//16
f 13//17 21//17 15//17
f 13//17 19//17 21//17
f 21//18 22//18 16//18
f 15//19 21//19 16//19
f 16//20 23//20 17//20
f 16//21 22//21 23//21
f 17//22 24//22 18//22
f 17//22 23//22 24//22
f 24//23 20//23 14//23
f 18//24 24//24 14//24
f 25//25 19//25 20//25
f 25//26 21//26 19//26
f 25//27 22//27 21//27
f 25//28 23//28 22//28
f 25//29 24//29 23//29
f 25//30 20//30 24//30
o canopy.001_conifer_lod2.003
v 59.549999 18.000000 2.329522
v 57.750000 22.497293 2.525988
v 59.775002 18.449190 2.329522
v 55.500000 18.000000 2.525988
v 62.250000 22.497293 2.525988
v 60.225002 18.449190 2.329522
v 64.500000 18.000000 2.525988
v 60.450001 18.000000 2.329522
v 62.250000 13.497293 2.525988
v 60.225002 17.545401 2.329522
v 57.750000 13.497293 2.525988
v 59.775002 17.545401 2.329522
v 57.750000 22.497293 2.713098
v 55.500000 18.000000 2.713098
v 62.250000 22.497293 2.713098
v 64.500000 18.000000 2.713098
v 62.250000 13.497293 2.713098
v 57.750000 13.497293 2.713098
v 58.710938 20.570656 10.356548
v 57.421875 18.000000 10.356548
v 61.289062 20.570656 10.356548
v 62.573437 18.000000 10.356548
v 61.289062 15.423933 10.356548
v 58.710938 15.423933 10.356548
v 60.000000 18.000000 18.000000
vn -0.0484 0.0242 -0.9985
vn 0.0000 0.0485 -0.9988
vn 0.0484 0.0242 -0.9985
vn 0.0485 -0.0242 -0.9985
vn 0.0484 -0.0240 -0.9985
vn 0.0000 -0.0485 -0.9988
vn -0.0484 -0.0240 -0.9985
vn -0.0485 -0.0242 -0.9985
vn -0.8943 0.4474 0.0000
vn 0.0000 1.0000 0.0000
vn 0.8943 0.4474 0.0000
vn 0.8945 -0.4470 0.0000
vn 0.0000 -1.0000 0.0000
vn -0.8945 -0.4470 0.0000
vn -0.8725 0.4365 0.2197
vn -0.8721 0.4373 0.2193
vn 0.0000 0.9697 0.2444
vn 0.8727 0.4360 0.2200
vn 0.8725 0.4365 0.2197
vn 0.8727 -0.4361 0.2196
vn 0.8730 -0.4353 0.2200
vn 0.0000 -0.9697 0.2444
vn -0.8725 -0.4366 0.2194
vn -0.8727 -0.4361 0.2196
vn -0.8559 0.4292 0.2887
vn 0.0000 0.9478 0.3188
vn 0.8566 0.4280 0.2884
vn 0.8569 -0.4272 0.2885
vn 0.0000 -0.9476 0.3194
vn -0.8562 -0.4284 0.2888
s off
f 26//31 27//31 28//31
f 26//31 29//31 27//31
f 28//32 30//32 31//32
f 28//32 27//32 30//32
f 30//33 32//33 33//33
f 31//33 30//33 33//33
f 32//34 34//34 35//34
f 33//35 32//35 35//35
f 35//36 36//36 37//36
f 35//36 34//36 36//36
f 37//37 29//37 26//37
f 37//38 36//38 29//38
f 29//39 38//39 27//39
f 29//39 39//39 38//39
f 27//40 40//40 30//40
f 27//40 38//40 40//40
f 30//41 41//41 32//41
f 30//41 40//41 41//41
f 32//42 42//42 34//42
f 32//42 41//42 42//42
f 34//43 43//43 36//43
f 34//43 42//43 43//43
f 36//44 39//44 29//44
f 36//44 43//44 39//44
f 39//45 44//45 38//45
f 39//46 45//46 44//46
f 38//47 46//47 40//47
f 38//47 44//47 46//47
f 46//48 47//48 41//48
f 40//49 46//49 41//49
f 41//50 48//50 42//50
f 41//51 47//51 48//51
f 42//52 49//52 43//52
f 42//52 48//52 49//52
f 49//53 45//53 39//53
f 43//54 49//54 39//54
f 50//55 44//55 45//55
f 50//56 46//56 44//56
f 50//57 47//57 46//57
f 50//58 48//58 47//58
f 50//59 49//59 48//59
f 50//60 45//60 49//60
o canopy.002_conifer_lod2.005
v 39.549999 18.000000 2.329522
v 37.750000 22.497293 2.525988
v 39.775002 18.449190 2.329522
v 35.500000 18.000000 2.525988
v 42.250000 22.497293 2.525988
v 40.225002 18.449190 2.329522
v 44.500000 18.000000 2.525988
v 40.450001 18.000000 2.329522
v 42.250000 13.497293 2.525988
v 40.225002 17.545401 2.329522
v 37.750000 13.497293 2.525988
v 39.775002 17.545401 2.329522
v 37.750000 22.497293 2.713098
v 35.500000 18.000000 2.713098
v 42.250000 22.497293 2.713098
v 44.500000 18.000000 2.713098
v 42.250000 13.497293 2.713098
v 37.750000 13.497293 2.713098
v 38.710938 20.570656 10.356548
v 37.421875 18.000000 10.356548
v 41.289062 20.570656 10.356548
v 42.573437 18.000000 10.356548
v 41.289062 15.423933 10.356548
v 38.710938 15.423933 10.356548
v 40.000000 18.000000 18.000000
vn -0.0484 0.0242 -0.9985
vn 0.0000 0.0485 -0.9988
vn 0.0484 0.0242 -0.9985
vn 0.0485 -0.0242 -0.9985
vn 0.0484 -0.0240 -0.9985
vn 0.0000 -0.0485 -0.9988
vn -0.0484 -0.0240 -0.9985
vn -0.0485 -0.0242 -0.9985
vn -0.8943 0.4474 0.0000
vn 0.0000 1.0000 0.0000
vn 0.8943 0.4474 0.0000
vn 0.8945 -0.4470 0.0000
vn 0.0000 -1.0000 0.0000
vn -0.8945 -0.4470 0.0000
vn -0.8725 0.4365 0.2197
vn -0.8721 0.4373 0.2193
vn 0.0000 0.9697 0.2444
vn 0.8727 0.4360 0.2200
vn 0.8725 0.4365 0.2197
vn 0.8727 -0.4361 0.2196
vn 0.8730 -0.4353 0.2200
vn 0.0000 -0.9697 0.2444
vn -0.8725 -0.4366 0.2194
vn -0.8727 -0.4361 0.2196
vn -0.8559 0.4292 0.2887
vn 0.0000 0.9478 0.3188
vn 0.8566 0.4280 0.2884
vn 0.8569 -0.4272 0.2885
vn 0.0000 -0.9476 0.3194
vn -0.8562 -0.4284 0.2888
s off
f 51//61 52//61 53//61
f 51//61 54//61 52//61
f 53//62 55//62 56//62
f 53//62 52//62 55//62
f 55//63 57//63 58//63
f 56//63 55//63 58//63
f 57//64 59//64 60//64
f 58//65 57//65 60//65
f 60//66 61//66 62//66
f 60//66 59//66 61//66
f 62//67 54//67 51//67
f 62//68 61//68 54//68
f 54//69 63//69 52//69
f 54//69 64//69 63//69
f 52//70 65//70 55//70
f 52//70 63//70 65//70
f 55//71 66//71 57//71
f 55//71 65//71 66//71
f 57//72 67//72 59//72
f 57//72 66//72 67//72
f 59//73 68//73 61//73
f 59//73 67//73 68//73
f 61//74 64//74 54//74
f 61//74 68//74 64//74
f 64//75 69//75 63//75
f 64//76 70//76 69//76
f 63//77 71//77 65//77
f 63//77 69//77 71//77
f 71//78 72//78 66//78
f 65//79 71//79 66//79
f 66//80 73//80 67//80
f 66//81 72//81 73//81
f 67//82 74//82 68//82
f 67//82 73//82 74//82
f 74//83 70//83 64//83
f 68//84 74//84 64//84
f 75//85 69//85 70//85
f 75//86 71//86 69//86
f 75//87 72//87 71//87
f 75//88 73//88 72//88
f 75//89 74//89 73//89
f 75//90 70//90 74//90
o canopy.003_conifer_lod2.007
v 19.550001 18.000000 2.329522
v 17.749998 22.497293 2.525988
v 19.775002 18.449190 2.329522
v 15.500000 18.000000 2.525988
v 22.250002 22.497293 2.525988
v 20.225002 18.449190 2.329522
v 24.500000 18.000000 2.525988
v 20.449999 18.000000 2.329522
v 22.250002 13.497293 2.525988
v 20.225002 17.545401 2.329522
v 17.749998 13.497293 2.525988
v 19.775002 17.545401 2.329522
v 17.749998 22.497293 2.713098
v 15.500000 18.000000 2.713098
v 22.250002 22.497293 2.713098
v 24.500000 18.000000 2.713098
v 22.250002 13.497293 2.713098
v 17.749998 13.497293 2.713098
v 18.710938 20.570656 10.356548
v 17.421875 18.000000 10.356548
v 21.289062 20.570656 10.356548
v 22.573437 18.000000 10.356548
v 21.289062 15.423933 10.356548
v 18.710938 15.423933 10.356548
v 20.000000 18.000000 18.000000
vn -0.0484 0.0242 -0.9985
vn 0.0000 0.0485 -0.9988
vn 0.0484 0.0242 -0.9985
vn 0.0485 -0.0242 -0.9985
vn 0.0484 -0.0240 -0.9985
vn 0.0000 -0.0485 -0.9988
vn -0.0484 -0.0240 -0.9985
vn -0.0485 -0.0242 -0.9985
vn -0.8943 0.4474 0.0000
vn 0.0000 1.0000 0.0000
vn 0.8943 0.4474 0.0000
vn 0.8945 -0.4470 0.0000
vn 0.0000 -1.0000 0.0000
vn -0.8945 -0.4470 0.0000
vn -0.8725 0.4365 0.2197
vn -0.8721 0.4373 0.2193
vn 0.0000 0.9697 0.2444
vn 0.8727 0.4360 0.2200
vn 0.8725 0.4365 0.2197
vn 0.8727 -0.4361 0.2196
vn 0.8730 -0.4353 0.2200
vn 0.0000 -0.9697 0.2444
vn -0.8725 -0.4366 0.2194
vn -0.8727 -0.4361 0.2196
vn -0.8559 0.4292 0.2887
vn 0.0000 0.9478 0.3188
vn 0.8566 0.4280 0.2884
vn 0.8569 -0.4272 0.2885
vn 0.0000 -0.9476 0.3194
vn -0.8562 -0.4284 0.2888
s off
f 76//91 77//91 78//91
f 76//91 79//91 77//91
f 78//92 80//92 81//92
f 78//92 77//92 80//92
f 80//93 82//93 83//93
f 81//93 80//93 83//93
f 82//94 84//94 85//94
f 83//95 82//95 85//95
f 85//96 86//96 87//96
f 85//96 84//96 86//96
f 87//97 79//97 76//97
f 87//98 86//98 79//98
f 79//99 88//99 77//99
f 79//99 89//99 88//99
f 77//100 90//100 80//100
f 77//100 88//100 90//100
f 80//101 91//101 82//101
f 80//101 90//101 91//101
f 82//102 92//102 84//102
f 82//102 91//102 92//102
f 84//103 93//103 86//103
f 84//103 92//103 93//103
f 86//104 89//104 79//104
f 86//104 93//104 89//104
f 89//105 94//105 88//105
f 89//106 95//106 94//106
f 88//107 96//107 90//107
f 88//107 94//107 96//107
f 96//108 97//108 91//108
f 90//109 96//109 91//109
f 91//110 98//110 92//110
f 91//111 97//111 98//111
f 92//112 99//112 93//112
f 92//112 98//112 99//112
f 99//113 95//113 89//113
f 93//114 99//114 89//114
f 100//115 94//115 95//115
f 100//116 96//116 94//116
f 100//117 97//117 96//117
f 100//118 98//118 97//118
f 100//119 99//119 98//119
f 100//120 95//120 99//120
o canopy.004_conifer_lod2.009
v -0.450000 18.000000 2.329522
v -2.250002 22.497293 2.525988
v -0.224998 18.449190 2.329522
v -4.500000 18.000000 2.525988
v 2.250002 22.497293 2.525988
v 0.225002 18.449190 2.329522
v 4.500000 18.000000 2.525988
v 0.450000 18.000000 2.329522
v 2.250002 13.497293 2.525988
v 0.225002 17.545401 2.329522
v -2.250002 13.497293 2.525988
v -0.224998 17.545401 2.329522
v -2.250002 22.497293 2.713098
v -4.500000 18.000000 2.713098
v 2.250002 22.497293 2.713098
v 4.500000 18.000000 2.713098
v 2.250002 13.497293 2.713098
v -2.250002 13.497293 2.713098
v -1.289063 20.570656 10.356548
v -2.578125 18.000000 10.356548
v 1.289063 20.570656 10.356548
v 2.573437 18.000000 10.356548
v 1.289063 15.423933 10.356548
v -1.289063 15.423933 10.356548
v 0.000000 18.000000 18.000000
vn -0.0484 0.0242 -0.9985
vn 0.0000 0.0485 -0.9988
vn 0.0484 0.0242 -0.9985
vn 0.0485 -0.0242 -0.9985
vn 0.0484 -0.0240 -0.9985
vn 0.0000 -0.0485 -0.9988
vn -0.0484 -0.0240 -0.9985
vn -0.0485 -0.0242 -0.9985
vn -0.8943 0.4474 0.0000
vn 0.0000 1.0000 0.0000
vn 0.8943 0.4474 0.0000
vn 0.8945 -0.4470 0.0000
vn 0.0000 -1.0000 0.0000
vn -0.8945 -0.4470 0.0000
vn -0.8725 0.4365 0.2197
vn -0.8721 0.4373 0.2193
vn 0.0000 0.9697 0.2444
vn 0.8727 0.4360 0.2200
vn 0.8725 0.4365 0.2197
vn 0.8727 -0.4361 0.2196
vn 0.8730 -0.4353 0.2200
vn 0.0000 -0.9697 0.2444
vn -0.8725 -0.4366 0.2194
vn -0.8727 -0.4361 0.2196
vn -0.8559 0.4292 0.2887
vn 0.0000 0.9478 0.3188
vn 0.8566 0.4280 0.2884
vn 0.8569 -0.4272 0.2885
vn 0.0000 -0.9476 0.3194
vn -0.8562 -0.4284 0.2888
s off
f 101//121 102//121 103//121
f 101//121 104//121 102//121
f 103//122 105//122 106//122
f 103//122 102//122 105//122
f 105//123 107//123 108//123
f 106//123 105//123 108//123
f 107//124 109//124 110//124
f 108//125 107//125 110//125
f 110//126 111//126 112//126
f 110//126 109//126 111//126
f 112//127 104//127 101//127
f 112//128 111//128 104//128
f 104//129 113//129 102//129
f 104//129 114//129 113//129
f 102//130 115//130 105//130
f 102//130 113//130 115//130
f 105//131 116//131 107//131
f 105//131 115//131 116//131
f 107//132 117//132 109//132
f 107//132 116//132 117//132
f 109//133 118//133 111//133
f 109//133 117//133 118//133
f 111//134 114//134 104//134
f 111//134 118//134 114//134
f 114//135 119//135 113//135
f 114//136 120//136 119//136
f 113//137 121//137 115//137
f 113//137 119//137 121//137
f 121//138 122//138 116//138
f 115//139 121//139 116//139
f 116//140 123//140 117//140
f 116//141 122//141 123//141
f 117//142 124//142 118//142
f 117//142 123//142 124//142
f 124//143 120//143 114//143
f 118//144 124//144 114//144
f 125//145 119//145 120//145
f 125//146 121//146 119//146
f 125//147 122//147 121//147
f 125//148 123//148 122//148
f 125//149 124//149 123//149
f 125//150 120//150 124//150
o canopy.005_conifer_lod2.011
v -20.449999 18.000000 2.329522
v -22.250002 22.497293 2.525988
v -20.224998 18.449190 2.329522
v -24.500000 18.000000 2.525988
v -17.749998 22.497293 2.525988
v -19.774998 18.449190 2.329522
v -15.500000 18.000000 2.525988
v -19.550001 18.000000 2.329522
v -17.749998 13.497293 2.525988
v -19.774998 17.545401 2.329522
v -22.250002 13.497293 2.525988
v -20.224998 17.545401 2.329522
v -22.250002 22.497293 2.713098
v -24.500000 18.000000 2.713098
v -17.749998 22.497293 2.713098
v -15.500000 18.000000 2.713098
v -17.749998 13.497293 2.713098
v -22.250002 13.497293 2.713098
v -21.289062 20.570656 10.356548
v -22.578125 18.000000 10.356548
v -18.710938 20.570656 10.356548
v -17.426563 18.000000 10.356548
v -18.710938 15.423933 10.356548
v -21.289062 15.423933 10.356548
v -20.000000 18.000000 18.000000
vn -0.0484 0.0242 -0.9985
vn 0.0000 0.0485 -0.9988
vn 0.0484 0.0242 -0.9985
vn 0.0485 -0.0242 -0.9985
vn 0.0484 -0.0240 -0.9985
vn 0.0000 -0.0485 -0.9988
vn -0.0484 -0.0240 -0.9985
vn -0.0485 -0.0242 -0.9985
vn -0.8943 0.4474 0.0000
vn 0.0000 1.0000 0.0000
vn 0.8943 0.4474 0.0000
vn 0.8945 -0.4470 0.0000
vn 0.0000 -1.0000 0.0000
vn -0.8945 -0.4470 0.0000
vn -0.8725 0.4365 0.2197
vn -0.8721 0.4373 0.2193
vn 0.0000 0.9697 0.2444
vn 0.8727 0.4360 0.2200
vn 0.8725 0.4365 0.2197
vn 0.8727 -0.4361 0.2196
vn 0.8730 -0.4353 0.2200
vn 0.0000 -0.9697 0.2444
vn -0.8725 -0.4366 0.2194
vn -0.8727 -0.4361 0.2196
vn -0.8559 0.4292 0.2887
vn 0.0000 0.9478 0.3188
vn 0.8566 0.4280 0.2884
vn 0.8569 -0.4272 0.2885
vn 0.0000 -0.9476 0.3194
vn -0.8562 -0.4284 0.2888
s off
f 126//151 127//151 128//151
f 126//151 129//151 127//151
f 128//152 130//152 131//152
f 128//152 127//152 130//152
f 130//153 132//153 133//153
f 131//153 130//153 133//153
f 132//154 134//154 135//154
f 133//155 132//155 135//155
f 135//156 136//156 137//156
f 135//156 134//156 136//156
f 137//157 129//157 126//157
f 137//158 136//158 129//158
f 129//159 138//159 127//159
f 129//159 139//159 138//159
f 127//160 140//160 130//160
f 127//160 138//160 140//160
f 130//161 141//161 132//161
f 130//161 140//161 141//161
f 132//162 142//162 134//162
f 132//162 141//162 142//162
f 134//163 143//163 136//163
f 134//163 142//163 143//163
f 136//164 139//164 129//164
f 136//164 143//164 139//164
f 139//165 144//165 138//165
f 139//166 145//166 144//166
f 138//167 146//167 140//167
f 138//167 144//167 146//167
f 146//168 147//168 141//168
f 140//169 146//169 141//169
f 141//170 148//170 142//170
f 141//171 147//171 148//171
f 142//172 149//172 143//172
f 142//172 148//172 149//172
f 149//173 145//173 139//173
f 143//174 149//174 139//174
f 150//175 144//175 145//175
f 150//176 146//176 144//176
f 150//177 147//177 146//177
f 150//178 148//178 147//178
f 150//179 149//179 148//179
f 150//180 145//180 149//180
o canopy.006_conifer_lod2.013
v -40.450001 18.000000 2.329522
v -42.250000 22.497293 2.525988
v -40.224998 18.449190 2.329522
v -44.500000 18.000000 2.525988
v -37.750000 22.497293 2.525988
v -39.774998 18.449190 2.329522
v -35.500000 18.000000 2.525988
v -39.549999 18.000000 2.329522
v -37.750000 13.497293 2.525988
v -39.774998 17.545401 2.329522
v -42.250000 13.497293 2.525988
v -40.224998 17.545401 2.329522
v -42.250000 22.497293 2.713098
v -44.500000 18.000000 2.713098
v -37.750000 22.497293 2.713098
v -35.500000 18.000000 2.713098
v -37.750000 13.497293 2.713098
v -42.250000 13.497293 2.713098
v -41.289062 20.570656 10.356548
v -42.578125 18.000000 10.356548
v -38.710938 20.570656 10.356548
v -37.426563 18.000000 10.356548
v -38.710938 15.423933 10.356548
v -41.289062 15.423933 10.356548
v -40.000000 18.000000 18.000000
vn -0.0484 0.0242 -0.9985
vn 0.0000 0.0485 -0.9988
vn 0.0484 0.0242 -0.9985
vn 0.0485 -0.0242 -0.9985
vn 0.0484 -0.0240 -0.9985
vn 0.0000 -0.0485 -0.9988
vn -0.0484 -0.0240 -0.9985
vn -0.0485 -0.0242 -0.9985
vn -0.8943 0.4474 0.0000
vn 0.0000 1.0000 0.0000
vn 0.8943 0.4474 0.0000
vn 0.8945 -0.4470 0.0000
vn 0.0000 -1.0000 0.0000
vn -0.8945 -0.4470 0.0000
vn -0.8725 0.4365 0.2197
vn -0.8721 0.4373 0.2193
vn 0.0000 0.9697 0.2444
vn 0.8727 0.4360 0.2200
vn 0.8725 0.4365 0.2197
vn 0.8727 -0.4361 0.2196
vn 0.8730 -0.4353 0.2200
vn 0.0000 -0.9697 0.2444
vn -0.8725 -0.4366 0.2194
vn -0.8727 -0.4361 0.2196
vn -0.8559 0.4292 0.2887
vn 0.0000 0.9478 0.3188
vn 0.8566 0.4280 0.2884
vn 0.8569 -0.4272 0.2885
vn 0.0000 -0.9476 0.3194
vn -0.8562 -0.4284 0.2888
s off
f 151//181 152//181 153//181
f 151//181 154//181 152//181
f 153//182 155//182 156//182
f 153//182 152//182 155//182
f 155//183 157//183 158//183
f 156//183 155//183 158//183
f 157//184 159//184 160//184
f 158//185 157//185 160//185
f 160//186 161//186 162//186
f 160//186 159//186 161//186
f 162//187 154//187 151//187
f 162//188 161//188 154//188
f 154//189 163//189 152//189
f 154//189 164//189 163//189
f 152//190 165//190 155//190
f 152//190 163//190 165//190
f 155//191 166//191 157//191
f 155//191 165//191 166//191
f 157//192 167//192 159//192
f 157//192 166//192 167//192
f 159//193 168//193 161//193
f 159//193 167//193 168//193
f 161//194 164//194 154//194
f 161//194 168//194 164//194
f 164//195 169//195 163//195
f 164//196 170//196 169//196
f 163//197 171//197 165//197
f 163//197 169//197 171//197
f 171//198 172//198 166//198
f 165//199 171//199 166//199
f 166//200 173//200 167//200
f 166//201 172//201 173//201
f 167//202 174//202 168//202
f 167//202 173//202 174//202
f 174//203 170//203 164//203
f 168//204 174//204 164//204
f 175//205 169//205 170//205
f 175//206 171//206 169//206
f 175//207 172//207 171//207
f 175//208 173//208 172//208
f 175//209 174//209 173//209
f 175//210 170//210 174//210
o canopy.007_conifer_lod2.015
v -60.450001 18.000000 2.329522
v -62.250000 22.497293 2.525988
v -60.224998 18.449190 2.329522
v -64.500000 18.000000 2.525988
v -57.750000 22.497293 2.525988
v -59.774998 18.449190 2.329522
v -55.500000 18.000000 2.525988
v -59.549999 18.000000 2.329522
v -57.750000 13.497293 2.525988
v -59.774998 17.545401 2.329522
v -62.250000 13.497293 2.525988
v -60.224998 17.545401 2.329522
v -62.250000 22.497293 2.713098
v -64.500000 18.000000 2.713098
v -57.750000 22.497293 2.713098
v -55.500000 18.000000 2.713098
v -57.750000 13.497293 2.713098
v -62.250000 13.497293 2.713098
v -61.289062 20.570656 10.356548
v -62.578125 18.000000 10.356548
v -58.710938 20.570656 10.356548
v -57.426563 18.000000 10.356548
v -58.710938 15.423933 10.356548
v -61.289062 15.423933 10.356548
v -60.000000 18.000000 18.000000
vn -0.0484 0.0242 -0.9985
vn 0.0000 0.0485 -0.9988
vn 0.0484 0.0242 -0.9985
vn 0.0485 -0.0242 -0.9985
vn 0.0484 -0.0240 -0.9985
vn 0.0000 -0.0485 -0.9988
vn -0.0484 -0.0240 -0.9985
vn -0.0485 -0.0242 -0.9985
vn -0.8943 0.4474 0.0000
vn 0.0000 1.0000 0.0000
vn 0.8943 0.4474 0.0000
vn 0.8945 -0.4470 0.0000
vn 0.0000 -1.0000 0.0000
vn -0.8945 -0.4470 0.0000
vn -0.8725 0.4365 0.2197
vn -0.8721 0.4373 0.2193
vn 0.0000 0.9697 0.2444
vn 0.8727 0.4360 0.2200
vn 0.8725 0.4365 0.2197
vn 0.8727 -0.4361 0.2196
vn 0.8730 -0.4353 0.2200
vn 0.0000 -0.9697 0.2444
vn -0.8725 -0.4366 0.2194
vn -0.8727 -0.4361 0.2196
vn -0.8559 0.4292 0.2887
vn 0.0000 0.9478 0.3188
vn 0.8566 0.4280 0.2884
vn 0.8569 -0.4272 0.2885
vn 0.0000 -0.9476 0.3194
vn -0.8562 -0.4284 0.2888
s off
f 176//211 177//211 178//211
f 176//211 179//211 177//211
f 178//212 180//212 181//212
f 178//212 177//212 180//212
f 180//213 182//213 183//213
f 181//213 180//213 183//213
f 182//214 184//214 185//214
f 183//215 182//215 185//215
f 185//216 186//216 187//216
f 185//216 184//216 186//216
f 187//217 179//217 176//217
f 187//218 186//218 179//218
f 179//219 188//219 177//219
f 179//219 189//219 188//219
f 177//220 190//220 180//220
f 177//220 188//220 190//220
f 180//221 191//221 182//221
f 180//221 190//221 191//221
f 182//222 192//222 184//222
f 182//222 191//222 192//222
f 184//223 193//223 186//223
f 184//223 192//223 193//223
f 186//224 189//224 179//224
f 186//224 193//224 189//224
f 189//225 194//225 188//225
f 189//226 195//226 194//226
f 188//227 196//227 190//227
f 188//227 194//227 196//227
f 196//228 197//228 191//228
f 190//229 196//229 191//229
f 191//230 198//230 192//230
f 191//231 197//231 198//231
f 192//232 199//232 193//232
f 192//232 198//232 199//232
f 199//233 195//233 189//233
f 193//234 199//234 189//234
f 200//235 194//235 195//235
f 200//236 196//236 194//236
f 200//237 197//237 196//237
f 200//238 198//238 197//238
f 200//239 199//239 198//239
f 200//240 195//240 199//240
o canopy.008_conifer_lod2.017
v -80.449997 18.000000 2.329522
v -82.250000 22.497293 2.525988
v -80.224998 18.449190 2.329522
v -84.500000 18.000000 2.525988
v -77.750000 22.497293 2.525988
v -79.775002 18.449190 2.329522
v -75.500000 18.000000 2.525988
v -79.550003 18.000000 2.329522
v -77.750000 13.497293 2.525988
v -79.775002 17.545401 2.329522
v -82.250000 13.497293 2.525988
v -80.224998 17.545401 2.329522
v -82.250000 22.497293 2.713098
v -84.500000 18.000000 2.713098
v -77.750000 22.497293 2.713098
v -75.500000 18.000000 2.713098
v -77.750000 13.497293 2.713098
v -82.250000 13.497293 2.713098
v -81.289062 20.570656 10.356548
v -82.578125 18.000000 10.356548
v -78.710938 20.570656 10.356548
v -77.426559 18.000000 10.356548
v -78.710938 15.423933 10.356548
v -81.289062 15.423933 10.356548
v -80.000000 18.000000 18.000000
vn -0.0484 0.0242 -0.9985
vn 0.0000 0.0485 -0.9988
vn 0.0484 0.0242 -0.9985
vn 0.0485 -0.0242 -0.9985
vn 0.0484 -0.0240 -0.9985
vn 0.0000 -0.0485 -0.9988
vn -0.0484 -0.0240 -0.9985
vn -0.0485 -0.0242 -0.9985
vn -0.8943 0.4474 0.0000
vn 0.0000 1.0000 0.0000
vn 0.8943 0.4474 0.0000
vn 0.8945 -0.4470 0.0000
vn 0.0000 -1.0000 0.0000
vn -0.8945 -0.4470 0.0000
vn -0.8725 0.4365 0.2197
vn -0.8721 0.4373 0.2193
vn 0.0000 0.9697 0.2444
vn 0.8727 0.4360 0.2200
vn 0.8725 0.4365 0.2197
vn 0.8727 -0.4361 0.2196
vn 0.8730 -0.4353 0.2200
vn 0.0000 -0.9697 0.2444
vn -0.8725 -0.4366 0.2194
vn -0.8727 -0.4361 0.2196
vn -0.8559 0.4292 0.2887
vn 0.0000 0.9478 0.3188
vn 0.8566 0.4280 0.2884
vn 0.8569 -0.4272 0.2885
vn 0.0000 -0.9476 0.3194
vn -0.8562 -0.4284 0.2888
s off
f 201//241 202//241 203//241
f 201//241 204//241 202//241
f 203//242 205//242 206//242
f 203//242 202//242 205//242
f 205//243 207//243 208//243
f 206//243 205//243 208//243
f 207//244 209//244 210//244
f 208//245 207//245 210//245
f 210//246 211//246 212//246
f 210//246 209//246 211//246
f 212//247 204//247 201//247
f 212//248 211//248 204//248
f 204//249 213//249 202//249
f 204//249 214//249 213//249
f 202//250 215//250 205//250
f 202//250 213//250 215//250
f 205//251 216//251 207//251
f 205//251 215//251 216//251
f 207//252 217//252 209//252
f 207//252 216//252 217//252
f 209//253 218//253 211//253
f 209//253 217//253 218//253
f 211//254 214//254 204//254
f 211//254 218//254 214//254
f 214//255 219//255 213//255
f 214//256 220//256 219//256
f 213//257 221//257 215//257
f 213//257 219//257 221//257
f 221//258 222//258 216//258
f 215//259 221//259 216//259
f 216//260 223//260 217//260
f 216//261 222//261 223//261
f 217//262 224//262 218//262
f 217//262 223//262 224//262
f 224//263 220//263 214//263
f 218//264 224//264 214//264
f 225//265 219//265 220//265
f 225//266 221//266 219//266
f 225//267 222//267 221//267
f 225//268 223//268 222//268
f 225//269 224//269 223//269
f 225//270 220//270 224//270
